<svg xmlns="http://www.w3.org/2000/svg" width="247.902" height="35.666" viewBox="0 0 247.902 35.666">
  <g id="Group_1006" data-name="Group 1006" transform="translate(-1014.039 -25.85)">
    <path id="Path_1" data-name="Path 1" d="M29.305,34.268a.493.493,0,0,0-.3.453v8.637c0,5.422,2.6,10.189,7.517,13.788A26.614,26.614,0,0,0,44,60.971a.483.483,0,0,0,.26,0,27.943,27.943,0,0,0,7.725-3.819c5.09-3.6,7.78-8.368,7.78-13.792V34.72a.493.493,0,0,0-.3-.453l-.1-.043a71.9,71.9,0,0,1-14.688-8.5.5.5,0,0,0-.591,0A71.889,71.889,0,0,1,29.4,34.226Zm.687.777.219-.1a72.889,72.889,0,0,0,13.959-8.059l.217-.16.217.16a72.934,72.934,0,0,0,13.959,8.059l.219.1v8.314c0,5.149-2.464,9.511-7.325,12.961a27.9,27.9,0,0,1-7.209,3.625l-.118.04-.116-.041a26.467,26.467,0,0,1-6.908-3.59c-4.722-3.456-7.115-7.828-7.115-13Z" transform="translate(985.182 0.377)" fill="#fff" stroke="#fff" stroke-width="0.3"/>
    <g id="Group_1" data-name="Group 1" transform="matrix(-0.966, -0.259, 0.259, -0.966, 1036.371, 54.275)">
      <path id="Path_2" data-name="Path 2" d="M18.621,9.311a.458.458,0,1,1-.916,0,8.395,8.395,0,1,0-16.79,0,.458.458,0,1,1-.916,0,9.311,9.311,0,1,1,18.621,0Z" transform="translate(0 0)" fill="#fff" stroke="#fff" stroke-width="0.3"/>
      <path id="Path_3" data-name="Path 3" d="M1.832,3.663A1.832,1.832,0,1,1,3.663,1.832,1.832,1.832,0,0,1,1.832,3.663Zm0-.916a.916.916,0,1,0-.916-.916A.916.916,0,0,0,1.832,2.747Z" transform="translate(7.631 7.632)" fill="#fff" stroke="#fff" stroke-width="0.3"/>
      <path id="Path_5" data-name="Path 5" d="M2.637.344a.458.458,0,1,1,.887.228,9.168,9.168,0,0,1-1.38,3.016A7.169,7.169,0,0,1,.712,5.268.458.458,0,0,1,.2,4.506,7.2,7.2,0,0,0,1.394,3.062,8.24,8.24,0,0,0,2.637.344Z" transform="translate(15.049 10.469)" fill="#fff" stroke="#fff" stroke-width="0.3"/>
      <ellipse id="Ellipse_1" data-name="Ellipse 1" cx="0.458" cy="0.458" rx="0.458" ry="0.458" transform="translate(13.89 16.027)" fill="#fff" stroke="#fff" stroke-width="0.3"/>
      <path id="Path_6" data-name="Path 6" d="M2.467,0,0,1.7" transform="translate(10.659 6.916)" fill="none" stroke="#fff" stroke-linecap="round" stroke-width="1.4"/>
    </g>
    <path id="Path_708" data-name="Path 708" d="M2.484,0h1.44V-7.032H6.24V-8.4H.168v1.368H2.484Zm11.64-4.98H10.536V-8.4H9.1V0h1.44V-3.612h3.588V0h1.44V-8.4h-1.44ZM20.58-7.032h3.648V-8.4H19.14V0H24.3V-1.368H20.58V-3.624h3.36V-4.992H20.58ZM32.82,0h5.016V-1.368H34.26V-8.4H32.82Zm7.968,0h1.44V-8.4h-1.44Zm6.624-7.032h3.54V-8.4h-4.98V0h1.44V-3.612h3.3V-4.98h-3.3Zm8.124,0h3.648V-8.4H54.1V0h5.16V-1.368h-3.72V-3.624H58.9V-4.992h-3.36ZM66.648-2.2c0,.684-.744.972-1.464.972a2.564,2.564,0,0,1-1.992-1.26l-1.08.912A3.672,3.672,0,0,0,65.184.144c1.584,0,2.928-.816,2.928-2.34s-1.068-2.1-2.352-2.58c-1.152-.432-1.812-.66-1.812-1.392a1.159,1.159,0,0,1,1.284-1.008,2.423,2.423,0,0,1,1.74.948l1-.984a3.611,3.611,0,0,0-2.736-1.332,2.553,2.553,0,0,0-2.748,2.376c0,1.56,1.392,2.232,2.628,2.664C66.108-3.156,66.648-2.9,66.648-2.2Zm8.52,1a2.855,2.855,0,0,1-2.8-3,2.855,2.855,0,0,1,2.8-3,2.888,2.888,0,0,1,2.136.924l.972-.948a4.209,4.209,0,0,0-3.108-1.32A4.206,4.206,0,0,0,70.908-4.2,4.206,4.206,0,0,0,75.168.144,4.234,4.234,0,0,0,78.4-1.284l-.96-.948A2.989,2.989,0,0,1,75.168-1.2Zm9.9-7.344A4.183,4.183,0,0,0,80.82-4.2,4.183,4.183,0,0,0,85.068.144,4.183,4.183,0,0,0,89.316-4.2,4.183,4.183,0,0,0,85.068-8.544Zm0,7.32A2.8,2.8,0,0,1,82.284-4.2a2.8,2.8,0,0,1,2.784-2.976A2.8,2.8,0,0,1,87.852-4.2,2.8,2.8,0,0,1,85.068-1.224ZM92.412,0h1.44V-3.168h.66L96.5,0h1.68l-2.1-3.264a2.427,2.427,0,0,0,1.872-2.52A2.574,2.574,0,0,0,95.172-8.4h-2.76Zm2.58-4.536h-1.14v-2.5h1.14c.924,0,1.5.42,1.5,1.248S95.916-4.536,94.992-4.536Zm7.656-2.5H106.3V-8.4h-5.088V0h5.16V-1.368h-3.72V-3.624h3.36V-4.992h-3.36ZM114.072,0h1.452l.768-1.992h3.552L120.612,0h1.452L118.8-8.4h-1.464Zm4-6.588,1.26,3.276h-2.52ZM129.024-2.2c0,.684-.744.972-1.464.972a2.564,2.564,0,0,1-1.992-1.26l-1.08.912A3.672,3.672,0,0,0,127.56.144c1.584,0,2.928-.816,2.928-2.34s-1.068-2.1-2.352-2.58c-1.152-.432-1.812-.66-1.812-1.392a1.159,1.159,0,0,1,1.284-1.008,2.423,2.423,0,0,1,1.74.948l1-.984a3.611,3.611,0,0,0-2.736-1.332,2.553,2.553,0,0,0-2.748,2.376c0,1.56,1.392,2.232,2.628,2.664C128.484-3.156,129.024-2.9,129.024-2.2Zm8.94,0c0,.684-.744.972-1.464.972a2.564,2.564,0,0,1-1.992-1.26l-1.08.912A3.672,3.672,0,0,0,136.5.144c1.584,0,2.928-.816,2.928-2.34s-1.068-2.1-2.352-2.58c-1.152-.432-1.812-.66-1.812-1.392a1.159,1.159,0,0,1,1.284-1.008,2.423,2.423,0,0,1,1.74.948l1-.984a3.611,3.611,0,0,0-2.736-1.332A2.553,2.553,0,0,0,133.8-6.168c0,1.56,1.392,2.232,2.628,2.664C137.424-3.156,137.964-2.9,137.964-2.2Zm6.18-4.836h3.648V-8.4H142.7V0h5.16V-1.368h-3.72V-3.624h3.36V-4.992h-3.36ZM155.256-2.2c0,.684-.744.972-1.464.972a2.564,2.564,0,0,1-1.992-1.26l-1.08.912A3.672,3.672,0,0,0,153.792.144c1.584,0,2.928-.816,2.928-2.34s-1.068-2.1-2.352-2.58c-1.152-.432-1.812-.66-1.812-1.392a1.159,1.159,0,0,1,1.284-1.008,2.423,2.423,0,0,1,1.74.948l1-.984a3.611,3.611,0,0,0-2.736-1.332,2.553,2.553,0,0,0-2.748,2.376c0,1.56,1.392,2.232,2.628,2.664C154.716-3.156,155.256-2.9,155.256-2.2Zm8.94,0c0,.684-.744.972-1.464.972a2.564,2.564,0,0,1-1.992-1.26l-1.08.912A3.672,3.672,0,0,0,162.732.144c1.584,0,2.928-.816,2.928-2.34s-1.068-2.1-2.352-2.58c-1.152-.432-1.812-.66-1.812-1.392a1.159,1.159,0,0,1,1.284-1.008,2.423,2.423,0,0,1,1.74.948l1-.984a3.611,3.611,0,0,0-2.736-1.332,2.553,2.553,0,0,0-2.748,2.376c0,1.56,1.392,2.232,2.628,2.664C163.656-3.156,164.2-2.9,164.2-2.2Zm4.74-6.2V0h1.44V-5.64l2.628,4,2.628-4V0h1.44V-8.4H175.74L173-4.176,170.268-8.4Zm13.152,1.368h3.648V-8.4h-5.088V0h5.16V-1.368h-3.72V-3.624h3.36V-4.992h-3.36ZM189-8.4V0h1.44V-5.772L194.64,0h1.3V-8.4H194.5v5.784L190.3-8.4ZM201.108,0h1.44V-7.032h2.316V-8.4h-6.072v1.368h2.316Z" transform="translate(1057.077 45.077)" fill="#fff"/>
  </g>
</svg>
